G75*
G70*
%OFA0B0*%
%FSLAX24Y24*%
%IPPOS*%
%LPD*%
%AMOC8*
5,1,8,0,0,1.08239X$1,22.5*
%
%ADD10C,0.0060*%
D10*
X002791Y005141D02*
X002791Y005581D01*
X002571Y005581D01*
X002498Y005508D01*
X002498Y005361D01*
X002571Y005287D01*
X002791Y005287D01*
X002958Y005287D02*
X003178Y005287D01*
X003251Y005361D01*
X003178Y005434D01*
X002958Y005434D01*
X002958Y005508D02*
X002958Y005287D01*
X002958Y005508D02*
X003031Y005581D01*
X003178Y005581D01*
X003418Y005581D02*
X003638Y005581D01*
X003712Y005508D01*
X003712Y005361D01*
X003638Y005287D01*
X003418Y005287D01*
X003418Y005728D01*
X003879Y005581D02*
X003879Y005287D01*
X003879Y005508D02*
X004172Y005508D01*
X004172Y005581D02*
X004025Y005728D01*
X003879Y005581D01*
X004172Y005581D02*
X004172Y005287D01*
X004799Y005361D02*
X004799Y005508D01*
X004946Y005508D01*
X004799Y005654D02*
X004873Y005728D01*
X005019Y005728D01*
X005093Y005654D01*
X005093Y005361D01*
X005019Y005287D01*
X004873Y005287D01*
X004799Y005361D01*
X005260Y005287D02*
X005260Y005581D01*
X005406Y005728D01*
X005553Y005581D01*
X005553Y005287D01*
X005553Y005508D02*
X005260Y005508D01*
X005720Y005728D02*
X006014Y005728D01*
X005867Y005728D02*
X005867Y005287D01*
X006254Y005361D02*
X006254Y005728D01*
X006327Y005728D02*
X006180Y005728D01*
X006254Y005361D02*
X006327Y005287D01*
X006401Y005287D01*
X006474Y005361D01*
X002331Y005581D02*
X002184Y005581D01*
X002257Y005654D02*
X002257Y005361D01*
X002184Y005287D01*
X002024Y005361D02*
X002024Y005508D01*
X001950Y005581D01*
X001804Y005581D01*
X001730Y005508D01*
X001730Y005434D01*
X002024Y005434D01*
X002024Y005361D02*
X001950Y005287D01*
X001804Y005287D01*
X001564Y005287D02*
X001564Y005581D01*
X001564Y005434D02*
X001417Y005581D01*
X001343Y005581D01*
M02*
