G75*
G70*
%OFA0B0*%
%FSLAX24Y24*%
%IPPOS*%
%LPD*%
%AMOC8*
5,1,8,0,0,1.08239X$1,22.5*
%
%ADD10C,0.0000*%
%ADD11R,0.0290X0.1100*%
%ADD12C,0.0540*%
%ADD13C,0.0160*%
%ADD14C,0.0290*%
D10*
X000504Y000957D02*
X000504Y005078D01*
X000506Y005138D01*
X000511Y005199D01*
X000520Y005258D01*
X000533Y005317D01*
X000549Y005376D01*
X000569Y005433D01*
X000592Y005488D01*
X000619Y005543D01*
X000648Y005595D01*
X000681Y005646D01*
X000717Y005695D01*
X000755Y005741D01*
X000797Y005785D01*
X000841Y005827D01*
X000887Y005865D01*
X000936Y005901D01*
X000987Y005934D01*
X001039Y005963D01*
X001094Y005990D01*
X001149Y006013D01*
X001206Y006033D01*
X001265Y006049D01*
X001324Y006062D01*
X001383Y006071D01*
X001444Y006076D01*
X001504Y006078D01*
X006496Y006078D01*
X006556Y006076D01*
X006617Y006071D01*
X006676Y006062D01*
X006735Y006049D01*
X006794Y006033D01*
X006851Y006013D01*
X006906Y005990D01*
X006961Y005963D01*
X007013Y005934D01*
X007064Y005901D01*
X007113Y005865D01*
X007159Y005827D01*
X007203Y005785D01*
X007245Y005741D01*
X007283Y005695D01*
X007319Y005646D01*
X007352Y005595D01*
X007381Y005543D01*
X007408Y005488D01*
X007431Y005433D01*
X007451Y005376D01*
X007467Y005317D01*
X007480Y005258D01*
X007489Y005199D01*
X007494Y005138D01*
X007496Y005078D01*
X007496Y000957D01*
X000504Y000957D01*
D11*
X002504Y003657D03*
X003004Y003657D03*
X003504Y003657D03*
X004004Y003657D03*
X004504Y003657D03*
X005004Y003657D03*
X005504Y003657D03*
X005504Y005257D03*
X005004Y005257D03*
X004504Y005257D03*
X004004Y005257D03*
X003004Y005257D03*
X002504Y005257D03*
D12*
X002004Y002457D03*
X001004Y002457D03*
X001004Y001457D03*
X002004Y001457D03*
X003004Y001457D03*
X004004Y001457D03*
X005004Y001457D03*
X006004Y001457D03*
X007004Y001457D03*
X007004Y002457D03*
X006004Y002457D03*
X005004Y002457D03*
X004004Y002457D03*
D13*
X004504Y002757D02*
X004054Y003207D01*
X004004Y003207D01*
X004004Y003657D01*
X004454Y003607D02*
X004454Y003907D01*
X004504Y003957D01*
X004504Y003657D01*
X004454Y003607D01*
X004504Y003957D02*
X004504Y004157D01*
X004504Y004207D01*
X004504Y004757D02*
X004504Y005257D01*
X004004Y005257D02*
X004004Y004707D01*
X005004Y004757D02*
X005004Y005257D01*
X005504Y005257D02*
X005704Y005257D01*
X007004Y003957D01*
X007004Y002457D01*
X006504Y002707D02*
X005554Y003657D01*
X005504Y003657D01*
X005004Y003657D02*
X005004Y003157D01*
X005054Y003157D01*
X005504Y002707D01*
X005504Y001957D01*
X006004Y001457D01*
X006504Y001957D02*
X006504Y002707D01*
X006504Y001957D02*
X007004Y001457D01*
X004504Y001957D02*
X004504Y002757D01*
X004504Y001957D02*
X004004Y001457D01*
X003004Y001457D02*
X003004Y001957D01*
X003504Y002457D01*
X003504Y003657D01*
X003004Y003657D02*
X003004Y002457D01*
X002004Y001457D01*
X001504Y001957D02*
X001504Y002757D01*
X002404Y003657D01*
X002504Y003657D01*
X003004Y004757D02*
X003004Y005257D01*
X002504Y005257D02*
X001004Y003757D01*
X001004Y002457D01*
X001504Y001957D02*
X001004Y001457D01*
D14*
X004504Y004157D03*
X004504Y004757D03*
X004004Y004707D03*
X005004Y004757D03*
X003004Y004757D03*
M02*
